{
	"asset":{
		"generator":"Khronos glTF Blender I/O v3.6.28",
		"version":"2.0"
	},
	"extensionsUsed":[
		"KHR_materials_specular",
		"KHR_materials_ior"
	],
	"scene":0,
	"scenes":[
		{
			"name":"Scene",
			"nodes":[
				0
			]
		}
	],
	"nodes":[
		{
			"mesh":0,
			"name":"Sphere.009",
			"rotation":[
				-0.200586199760437,
				-0.03237265720963478,
				0.008320877328515053,
				0.9791057109832764
			],
			"scale":[
				0.1030934602022171,
				0.1030934676527977,
				0.1030934527516365
			],
			"translation":[
				-0.4669491946697235,
				21.187183380126953,
				7.444742202758789
			]
		}
	],
	"materials":[
		{
			"doubleSided":true,
			"name":"Material.134",
			"pbrMetallicRoughness":{
				"baseColorFactor":[
					0,
					0,
					0,
					1
				],
				"metallicFactor":0.2110091745853424,
				"roughnessFactor":0.5
			}
		},
		{
			"alphaMode":"BLEND",
			"doubleSided":true,
			"extensions":{
				"KHR_materials_specular":{
					"specularColorFactor":[
						1.4249901909459448,
						1.4249901909459448,
						1.4249901909459448
					]
				},
				"KHR_materials_ior":{
					"ior":1.4500000476837158
				}
			},
			"name":"body1",
			"pbrMetallicRoughness":{
				"baseColorFactor":[
					0.2434607893228531,
					0.24473275244235992,
					0.8000000715255737,
					1
				],
				"metallicFactor":0,
				"roughnessFactor":0.3073394298553467
			}
		},
		{
			"doubleSided":true,
			"extensions":{
				"KHR_materials_specular":{
					"specularColorFactor":[
						2.1646797168691725,
						2.1646797168691725,
						2.1646797168691725
					]
				},
				"KHR_materials_ior":{
					"ior":1.4500000476837158
				}
			},
			"name":"Material.135",
			"pbrMetallicRoughness":{
				"baseColorFactor":[
					0.47029680013656616,
					0.3064001202583313,
					0.8000000715255737,
					1
				],
				"metallicFactor":0,
				"roughnessFactor":0.2431192696094513
			}
		}
	],
	"meshes":[
		{
			"name":"Sphere",
			"primitives":[
				{
					"attributes":{
						"POSITION":0,
						"NORMAL":1,
						"TEXCOORD_0":2
					},
					"indices":3,
					"material":0
				},
				{
					"attributes":{
						"POSITION":4,
						"NORMAL":5,
						"TEXCOORD_0":6
					},
					"indices":7,
					"material":1
				},
				{
					"attributes":{
						"POSITION":8,
						"NORMAL":9,
						"TEXCOORD_0":10
					},
					"indices":11,
					"material":2
				}
			]
		}
	],
	"accessors":[
		{
			"bufferView":0,
			"componentType":5126,
			"count":571,
			"max":[
				7.512171268463135,
				-2.4414310455322266,
				-9.218573570251465
			],
			"min":[
				-0.8521289825439453,
				-5.166057586669922,
				-10.111876487731934
			],
			"type":"VEC3"
		},
		{
			"bufferView":1,
			"componentType":5126,
			"count":571,
			"type":"VEC3"
		},
		{
			"bufferView":2,
			"componentType":5126,
			"count":571,
			"type":"VEC2"
		},
		{
			"bufferView":3,
			"componentType":5123,
			"count":2871,
			"type":"SCALAR"
		},
		{
			"bufferView":4,
			"componentType":5126,
			"count":922,
			"max":[
				21.776151657104492,
				11.662439346313477,
				-8.227062225341797
			],
			"min":[
				-15.130542755126953,
				-12.503780364990234,
				-44.53887176513672
			],
			"type":"VEC3"
		},
		{
			"bufferView":5,
			"componentType":5126,
			"count":922,
			"type":"VEC3"
		},
		{
			"bufferView":6,
			"componentType":5126,
			"count":922,
			"type":"VEC2"
		},
		{
			"bufferView":7,
			"componentType":5123,
			"count":4800,
			"type":"SCALAR"
		},
		{
			"bufferView":8,
			"componentType":5126,
			"count":46606,
			"max":[
				22.30933380126953,
				-7.152052402496338,
				-7.663379669189453
			],
			"min":[
				-14.299774169921875,
				-20.155597686767578,
				-44.78818893432617
			],
			"type":"VEC3"
		},
		{
			"bufferView":9,
			"componentType":5126,
			"count":46606,
			"type":"VEC3"
		},
		{
			"bufferView":10,
			"componentType":5126,
			"count":46606,
			"type":"VEC2"
		},
		{
			"bufferView":11,
			"componentType":5123,
			"count":279552,
			"type":"SCALAR"
		}
	],
	"bufferViews":[
		{
			"buffer":0,
			"byteLength":6852,
			"byteOffset":0,
			"target":34962
		},
		{
			"buffer":0,
			"byteLength":6852,
			"byteOffset":6852,
			"target":34962
		},
		{
			"buffer":0,
			"byteLength":4568,
			"byteOffset":13704,
			"target":34962
		},
		{
			"buffer":0,
			"byteLength":5742,
			"byteOffset":18272,
			"target":34963
		},
		{
			"buffer":0,
			"byteLength":11064,
			"byteOffset":24016,
			"target":34962
		},
		{
			"buffer":0,
			"byteLength":11064,
			"byteOffset":35080,
			"target":34962
		},
		{
			"buffer":0,
			"byteLength":7376,
			"byteOffset":46144,
			"target":34962
		},
		{
			"buffer":0,
			"byteLength":9600,
			"byteOffset":53520,
			"target":34963
		},
		{
			"buffer":0,
			"byteLength":559272,
			"byteOffset":63120,
			"target":34962
		},
		{
			"buffer":0,
			"byteLength":559272,
			"byteOffset":622392,
			"target":34962
		},
		{
			"buffer":0,
			"byteLength":372848,
			"byteOffset":1181664,
			"target":34962
		},
		{
			"buffer":0,
			"byteLength":559104,
			"byteOffset":1554512,
			"target":34963
		}
	],
	"buffers":[
		{
			"byteLength":2113616,
			"uri":"data:application/octet-stream;base64,"
		}
	]
}
